<svg xmlns="http://www.w3.org/2000/svg" viewBox="0 0 16 16" width="16" height="16">
  <path d="M8 0a7.78 7.78 0 0 1 4.03 1.1 7.88 7.88 0 0 1 2.88 2.87A7.74 7.74 0 0 1 16 8a7.78 7.78 0 0 1-1.1 4.04 8.17 8.17 0 0 1-4.78 3.68 7.99 7.99 0 0 1-7.78-2.06 8.34 8.34 0 0 1-2.06-3.54 7.98 7.98 0 0 1 2.06-7.77A8.18 8.18 0 0 1 5.88.3C6.55.09 7.26 0 8 0Zm-.91 10.52c.11 0 .22-.02.32-.06.1-.05.2-.1.28-.19l3.35-3.35a.86.86 0 0 0 .24-.6.79.79 0 0 0-.07-.32.73.73 0 0 0-.18-.27.73.73 0 0 0-.26-.18.79.79 0 0 0-.33-.07.98.98 0 0 0-.33.07.8.8 0 0 0-.27.18L7.09 8.48l-.93-.93a.82.82 0 0 0-.93-.17.8.8 0 0 0-.27.17.82.82 0 0 0-.25.6c0 .1.02.22.06.33.05.1.11.2.2.27l1.51 1.52c.08.08.17.14.28.2.1.03.22.05.33.05Z"></path>
</svg>